<svg xmlns="http://www.w3.org/2000/svg" width="24" height="24"><path style="font-variant-east_asian:normal;opacity:1;vector-effect:none;fill:#c8c8c8;fill-opacity:1;stroke:#c8c8c8;stroke-width:1.88976383;stroke-linecap:butt;stroke-linejoin:miter;stroke-miterlimit:4;stroke-dasharray:none;stroke-dashoffset:0;stroke-opacity:1" d="M6 2a2 2 0 0 0-2 2v16a2 2 0 0 0 2 2h12a2 2 0 0 0 2-2V4a2 2 0 0 0-2-2H6zm11.836 6.633A6 6 0 0 1 18 10c0 .482-.057.95-.164 1.398V8.633zM6.016 19.172h1.97A1 1 0 0 1 7 20a1 1 0 0 1-.984-.828zm8.404 0h.865l-.705.408-.16-.408z"/><path d="M6 2h12a2 2 0 0 1 2 2v16a2 2 0 0 1-2 2H6a2 2 0 0 1-2-2V4a2 2 0 0 1 2-2m6 2a6 6 0 0 0-6 6c0 3.31 2.69 6 6.1 6l-.88-2.23a1.01 1.01 0 0 1 .37-1.37l.86-.5a1.01 1.01 0 0 1 1.37.37l1.92 2.42A5.977 5.977 0 0 0 18 10a6 6 0 0 0-6-6m0 5a1 1 0 0 1 1 1 1 1 0 0 1-1 1 1 1 0 0 1-1-1 1 1 0 0 1 1-1m-5 9a1 1 0 0 0-1 1 1 1 0 0 0 1 1 1 1 0 0 0 1-1 1 1 0 0 0-1-1m5.09-4.73 2.49 6.31 2.59-1.5-4.22-5.31-.86.5z"/></svg>